# xmcd
#
# Track frame offsets:
#	150
#	10973
#	21225
#	36425
#	49485
#	69373
#	79725
#	99930
#	110298
#	127275
#	138368
#	155225
#	166285
#	178875
#	192133
#	199483
#	218073
#	231140
#
# Disc length: 3128
#
# Revision: 1
# Processed by: cddbd v1.5.1PL0 Copyright (c) Steve Scherf et al.
# Submitted via: ExactAudioCopy v0.90b4
# Normalized: r0:DSETVAR1,TDELIM( - )
#
DISCID=070c3612
DTITLE=Various Artist - Church Street Station - Vol. 3 -
DYEAR=1900
DGENRE=Country
TTITLE0=Danny Davis and Nashville Brass - Trailer - It´s Country Time
TTITLE1=Tammy Waynette - Womanhood
TTITLE2=George Jones - I Always Get Lucky With You
TTITLE3=Barbara Fairchild - Where Is The Fire
TTITLE4=The Osmonds - He Ain´t Heavy, He´s My Brother
TTITLE5=Faron Young - Going Steady
TTITLE6=Nitty Gritty Dirt Band - Mr. Bojangles
TTITLE7=Leroy Van Dyke - Walk On By
TTITLE8=Jonny Rodriguez - She Don`t Cry Like She Used To
TTITLE9=Lynn Anderson - Even Cowgirls Get The Blues
TTITLE10=Tanya Tucker - The Night They Drove Old Dixie Down
TTITLE11=The Bellamy Brothers - Sugar Daddy
TTITLE12=Charlie Rich - Behind Closed Doors
TTITLE13=Atlanta - Can´t You Hear
TTITLE14=Rex Allen Sen. - Highways
TTITLE15=Ed Bruce and Lynn Anderson - Fools For Each Other
TTITLE16=The Osmonds - Takin´ Country To The City
TTITLE17=Danny Davis and Nashville Brass - Trailer - It´s Country Time
EXTD=
EXTT0=
EXTT1=
EXTT2=
EXTT3=
EXTT4=
EXTT5=
EXTT6=
EXTT7=
EXTT8=
EXTT9=
EXTT10=
EXTT11=
EXTT12=
EXTT13=
EXTT14=
EXTT15=
EXTT16=
EXTT17=
PLAYORDER=
